<svg width="57" height="48" viewBox="0 0 57 48" fill="none" xmlns="http://www.w3.org/2000/svg">
<g id="Group">
<path id="Vector" d="M13.0848 14.8766C15.06 11.7902 18.3936 9.81498 21.9735 9.56787C24.5662 3.64198 30.7395 0.061644 37.1588 0.926223C44.8132 1.91382 50.3687 8.70396 49.8746 16.3585C53.702 18.4574 56.0476 22.4081 56.0476 26.7293C56.0476 33.2728 50.7389 38.5814 44.1955 38.5814H39.2572C37.6521 38.5814 37.6521 36.1121 39.2572 36.1121H44.1955C49.3809 36.1121 53.5782 31.9146 53.5782 26.7294C53.5782 23.0257 51.4794 19.8159 48.1461 18.2104C47.6523 18.0871 47.2819 17.4696 47.2819 16.8524C48.1461 10.3089 43.5782 4.26004 36.9111 3.39546C31.3556 2.6546 26.0471 5.86477 24.0717 11.1732C23.9483 11.667 23.3308 12.0374 22.837 12.0374C19.5038 12.0374 16.4173 13.8893 14.8122 16.729C14.5651 17.2228 14.0713 17.4699 13.5775 17.4699C8.02194 16.729 2.95963 21.0502 2.95963 26.7291C2.95963 31.9145 7.15711 36.1118 12.3424 36.1118H17.2806C18.8857 36.1118 18.8857 38.5812 17.2806 38.5812H12.3424C5.7989 38.5812 0.490234 33.2724 0.490234 26.729C0.490234 19.8155 6.29278 14.5064 13.0826 14.8769L13.0848 14.8766Z" fill="black"/>
<path id="Vector_2" d="M34.4431 36.4259C34.9369 36.9197 34.9369 37.6606 34.4431 38.1544C33.9493 38.6482 33.2084 38.6482 32.7146 38.1544L29.5047 35.0679L29.5047 45.9319C29.5047 46.5491 29.011 47.1666 28.27 47.1666C27.5291 47.1666 27.0354 46.5495 27.0354 45.9319L27.0354 35.0679L23.8255 38.1544C23.3317 38.6482 22.5908 38.6482 22.097 38.1544C21.6032 37.6606 21.6032 36.9197 22.097 36.4259L27.2824 31.2405C27.7762 30.7467 28.6404 30.6233 29.1342 31.1171L34.4431 36.4259Z" fill="black"/>
</g>
</svg>
