<svg width="64" height="57" viewBox="0 0 64 57" fill="none" xmlns="http://www.w3.org/2000/svg">
<path id="Vector" d="M31.8922 0.320675C31.4276 0.378509 31.085 0.782086 31.1033 1.24977V6.65725C31.1001 6.89801 31.1938 7.1306 31.3629 7.30222C31.532 7.47446 31.7633 7.57127 32.0047 7.57127C32.2461 7.57127 32.4774 7.47446 32.6465 7.30222C32.8157 7.1306 32.9093 6.89801 32.9062 6.65725V1.24977C32.9162 0.985128 32.8094 0.729269 32.6145 0.550109C32.419 0.370949 32.155 0.287346 31.8922 0.320658L31.8922 0.320675ZM18.4026 3.02377C18.0977 3.04514 17.8243 3.21926 17.6766 3.48706C17.5288 3.75424 17.5263 4.07797 17.6703 4.34765L19.4725 7.9521C19.6982 8.40346 20.2463 8.58638 20.6977 8.36071C21.1484 8.13505 21.3313 7.58688 21.1057 7.13553L19.3034 3.53108C19.1394 3.18911 18.7792 2.98669 18.4026 3.02379L18.4026 3.02377ZM45.4947 3.02377C45.1578 3.03194 44.8535 3.22807 44.7064 3.53106L42.9042 7.13551C42.6785 7.58686 42.8615 8.13501 43.3122 8.3607C43.7635 8.58637 44.3117 8.40344 44.5374 7.95209L46.3396 4.34764C46.4924 4.06035 46.4792 3.71336 46.3038 3.43928C46.129 3.16458 45.8197 3.00617 45.4947 3.02377H45.4947ZM11.1368 14.7678C10.9092 14.8124 10.7074 14.9438 10.5735 15.1336L0.632542 28.6515C0.35784 29.0306 0.418815 29.5567 0.773354 29.8629L10.8835 38.424C9.03906 38.9892 7.67311 40.682 7.67311 42.705C7.67311 45.1825 9.70112 47.211 12.1791 47.211C12.8442 47.211 13.4678 47.05 14.0379 46.7885C14.2743 48.5455 15.7679 49.9141 17.5859 49.9141C17.9059 49.9141 18.2196 49.8531 18.5156 49.7733C18.5138 49.821 18.4874 49.8663 18.4874 49.9141C18.4874 51.8943 20.1117 53.5192 22.0918 53.5192C22.7751 53.5192 23.4044 53.3186 23.9507 52.9842C24.1374 54.7934 25.6436 56.2229 27.4993 56.2229C28.4259 56.2229 29.2519 55.847 29.8931 55.2649C30.8398 55.9205 31.7405 56.2229 32.9068 56.2229C34.0905 56.2229 35.1824 55.6294 36.0046 54.8148C36.7238 54.1013 37.2606 53.1929 37.3844 52.167C37.9332 52.4574 38.5581 52.6177 39.215 52.6177C41.0693 52.6177 42.6189 51.3322 43.101 49.6047C43.57 49.8046 44.0861 49.914 44.6217 49.914C46.6458 49.914 48.318 48.3871 48.621 46.422C48.6827 46.4692 48.7813 46.549 48.8461 46.5911C49.569 47.0595 50.4082 47.211 51.1839 47.211C52.2865 47.211 53.3689 46.8608 54.1692 46.1121C54.9689 45.3641 55.4365 44.2087 55.4365 42.8735C55.4089 41.4339 54.4641 40.1459 53.296 39.2972V39.2689L53.2395 39.2406L52.4795 38.6214L63.2088 29.8628C63.5721 29.5648 63.6457 29.0374 63.3779 28.6514L53.4369 15.1335C53.2383 14.8563 52.9007 14.7149 52.5638 14.7677C52.516 14.7733 52.4689 14.7828 52.423 14.796C46.9482 16.6693 43.7191 16.5699 37.4128 16.5699C35.388 16.5699 33.6568 17.1099 32.0053 18.1754C30.3502 17.1023 28.6308 16.5699 26.5978 16.5699C20.2914 16.5699 17.0623 16.6692 11.5877 14.796C11.4425 14.7482 11.2872 14.7388 11.137 14.7677L11.1368 14.7678ZM11.6717 16.6825C16.9879 18.398 20.5699 18.3722 26.5977 18.3722C28.1554 18.3722 29.3517 18.7092 30.5971 19.4427L23.2182 27.6658C23.002 27.9135 22.9372 28.2586 23.0498 28.5673C23.5747 30.1432 24.6307 31.0893 25.6969 31.5243C26.763 31.9593 27.7989 31.9266 28.4848 31.8625C29.2536 31.7902 29.9331 31.4438 30.7377 30.9893C31.5424 30.5348 32.4156 29.9465 33.2157 29.3838C34.4956 28.4843 35.1808 27.9279 35.5818 27.6099L52.1686 40.7054C52.1868 40.7155 52.2057 40.7249 52.2245 40.7337C53.0003 41.2818 53.6088 42.3184 53.6327 42.8735C53.6333 42.883 53.6327 42.8955 53.6327 42.9018C53.6264 43.814 53.3416 44.403 52.9286 44.789C52.5112 45.1794 51.9096 45.4082 51.1829 45.4082C50.7522 45.4082 50.0249 45.1964 49.8307 45.0706C49.9174 45.1266 49.5975 44.8984 49.2398 44.6199C48.8821 44.3414 48.3729 43.9429 47.8034 43.4934C46.6637 42.5939 45.2052 41.4422 43.7482 40.2831C40.8327 37.9641 37.9749 35.6923 37.9749 35.6923C37.7882 35.5433 37.5493 35.4742 37.3117 35.5006C37.0741 35.527 36.8566 35.6464 36.7076 35.8331C36.3964 36.2222 36.4593 36.7899 36.8484 37.1004C36.8484 37.1004 39.7042 39.3709 42.6217 41.6912C44.0801 42.851 45.5623 44.0279 46.7052 44.9299C46.8529 45.0462 46.9366 45.1065 47.0711 45.2115C46.9435 45.3711 46.8737 45.5698 46.8737 45.7747C46.8737 47.0848 45.8591 48.1119 44.6207 48.1119C44.1467 48.1119 43.7167 47.9484 43.3534 47.6894C43.4118 47.7309 43.2025 47.5763 42.9592 47.3795C42.716 47.1834 42.3621 46.9074 41.9736 46.5912C41.1972 45.9588 40.2071 45.124 39.214 44.3099C37.2268 42.6825 35.2713 41.0996 35.2713 41.0996C35.0934 40.9418 34.8608 40.8613 34.6232 40.8746C34.2554 40.9066 33.9449 41.1606 33.8393 41.5145C33.7337 41.8684 33.855 42.2506 34.1448 42.4794C34.1448 42.4794 36.0709 44.0893 38.0592 45.7181C39.053 46.5328 40.0688 47.365 40.8471 47.9994C41.0966 48.2024 41.2752 48.3275 41.4669 48.4784C41.4669 49.7878 40.4517 50.8156 39.2139 50.8156C38.7399 50.8156 38.31 50.6515 37.9466 50.3931C37.8209 50.3039 33.9392 47.4707 31.6661 45.6055C31.4813 45.4408 31.2374 45.3591 30.9903 45.3805C30.6276 45.4226 30.3259 45.6797 30.2272 46.0318C30.1285 46.3838 30.2517 46.7603 30.5396 46.9854C32.264 48.4004 34.2976 49.9286 35.6088 50.8998V51.717C35.6088 52.2947 35.282 53.0057 34.7363 53.5475C34.19 54.0888 33.4596 54.4201 32.9057 54.4201C31.9182 54.4201 31.6152 54.3377 30.8777 53.8009C31.0079 53.4293 31.1028 53.0314 31.1028 52.6178C31.1028 50.6376 29.4784 49.0133 27.4983 49.0133C26.8156 49.0133 26.1864 49.2132 25.6395 49.5483C25.4528 47.7385 23.9471 46.3096 22.0909 46.3096C21.7715 46.3096 21.4578 46.3712 21.1618 46.4504C21.1636 46.4027 21.19 46.3574 21.19 46.3096C21.19 44.3294 19.565 42.7052 17.585 42.7052C17.275 42.7052 16.972 42.7706 16.6841 42.846C16.6854 42.7976 16.6841 42.753 16.6841 42.7052C16.6841 40.7847 15.4564 39.1542 13.7554 38.5085C13.7303 38.4689 13.702 38.4312 13.6706 38.396L2.6031 29.0183L11.6717 16.6825ZM52.338 16.6825L61.406 29.0462L51.0426 37.4949L36.1726 25.7509C35.8369 25.4957 35.3692 25.507 35.0461 25.7792C35.0461 25.7792 33.7165 26.8353 32.1738 27.9197C31.4025 28.4615 30.5841 29.0053 29.8642 29.412C29.1444 29.8187 28.468 30.0733 28.3153 30.0878C27.796 30.1368 27.0323 30.1041 26.3723 29.8344C25.8297 29.6132 25.3595 29.17 24.9924 28.4263L32.5396 20.006C32.5515 19.9978 32.5566 19.9859 32.5679 19.9777C34.1507 18.8418 35.5042 18.3722 37.4121 18.3722C43.44 18.3722 47.0219 18.398 52.3381 16.6824L52.338 16.6825ZM12.1786 40.0008C13.6823 40.0008 14.8824 41.2002 14.8824 42.7046C14.8824 44.2082 13.6823 45.4077 12.1786 45.4077C10.6749 45.4077 9.47489 44.2083 9.47489 42.7046C9.47489 41.2003 10.6749 40.0008 12.1786 40.0008ZM17.5855 44.5068C18.5919 44.5068 19.3883 45.3033 19.3883 46.309C19.3883 47.3148 18.5919 48.1113 17.5855 48.1113C16.5797 48.1113 15.7832 47.3148 15.7832 46.309C15.7832 45.3033 16.5797 44.5068 17.5855 44.5068ZM22.0914 48.1113C23.0978 48.1113 23.8943 48.9077 23.8943 49.9135C23.8943 50.9199 23.0978 51.7163 22.0914 51.7163C21.0856 51.7163 20.2892 50.9199 20.2892 49.9135C20.2892 48.9077 21.0857 48.1113 22.0914 48.1113ZM27.4989 50.815C28.5047 50.815 29.3011 51.6115 29.3011 52.6172C29.3011 53.6236 28.5047 54.4194 27.4989 54.4194C26.4931 54.4194 25.6967 53.6236 25.6967 52.6172C25.6967 51.6114 26.4931 50.815 27.4989 50.815Z" fill="black"/>
</svg>
