<svg width="60" height="55" viewBox="0 0 60 55" fill="none" xmlns="http://www.w3.org/2000/svg">
<g id="Group">
<path id="Vector" d="M0.588506 32.9734C0.682322 33.8881 0.776139 34.8498 0.893414 35.7879C1.62048 40.9009 3.42645 45.7089 6.24092 50.0951C6.59273 50.6346 7.24944 51.0098 7.88265 51.0333C8.68009 51.0567 9.47752 51.0333 10.2515 50.9864H10.6503C11.8933 50.9395 12.7845 50.2593 13.066 49.1804C13.7227 49.368 14.3794 49.5557 15.0126 49.7433C15.8804 50.0013 16.7248 50.2593 17.5925 50.4938C18.648 50.7987 19.7034 51.1036 20.7353 51.4085C23.3622 52.1825 26.0828 52.9799 28.8035 53.6601C30.328 54.0354 31.7586 54.223 33.0955 54.223C35.2298 54.223 37.1296 53.7539 38.8886 52.7689L57.6754 42.4257C58.121 42.1677 58.5432 41.7924 58.8716 41.3233C59.4579 40.479 59.5752 39.4001 59.1765 38.4619C58.7777 37.5707 57.9803 36.9609 57.0187 36.8436C56.0336 36.7263 55.0486 36.9608 54.4153 37.1954C52.3044 37.9693 50.2405 38.7902 48.247 39.6111L46.8632 40.174C46.2534 40.432 45.9485 41.1356 46.183 41.7454C46.441 42.3552 47.1446 42.6601 47.7544 42.4256L49.1382 41.8627C51.1318 41.0652 53.1723 40.2209 55.2362 39.4704C55.7757 39.2828 56.315 39.189 56.7138 39.2359C56.7607 39.2359 56.9014 39.2593 56.9718 39.447C56.9952 39.5173 57.0656 39.7049 56.9249 39.9395C56.8076 40.1037 56.6434 40.2678 56.5261 40.3382L37.7394 50.6815C35.4174 51.9714 32.7671 52.159 29.4132 51.3147C26.7394 50.6345 24.0657 49.8371 21.4389 49.0866C20.3834 48.7817 19.328 48.4534 18.2726 48.1484C17.4048 47.8905 16.5604 47.6559 15.6927 47.3979C14.5434 47.0696 13.4177 46.7177 12.2684 46.3894L10.7673 45.9672L10.7204 47.5386V48.3595V48.5237C10.697 48.5237 10.6266 48.5471 10.5562 48.5471L10.181 48.5706C9.47736 48.594 8.8206 48.6175 8.16399 48.6175C5.58411 44.5834 3.94227 40.1506 3.28556 35.4361C3.16828 34.5448 3.07447 33.6771 2.98065 32.7389V32.692C5.34953 32.6451 7.71841 32.5747 10.0872 32.5278C10.2045 32.5278 10.2748 32.5278 10.3217 32.5513C10.3217 32.5982 10.3452 32.6451 10.3452 32.7389L10.3921 34.8732L11.5882 34.8497C12.3857 34.8263 13.2066 34.8028 14.0039 34.7794C17.6159 34.6386 21.0401 34.5214 24.3707 35.6003C25.4495 35.9521 26.3408 36.3977 27.1851 36.8433C28.4516 37.5001 29.765 38.1802 31.6414 38.4617C33.9633 38.8135 36.3321 39.0481 38.8652 39.1419C41.1637 39.2122 41.1402 40.08 41.1402 40.5256C41.1168 41.3231 40.6008 41.8625 39.8033 41.9094C38.3492 41.9797 36.8482 42.0032 35.4175 42.0267C34.7842 42.0501 34.151 42.0501 33.4239 42.0736L27.5134 42.2143C26.8567 42.2377 26.3173 42.7772 26.3407 43.4574C26.3641 44.1376 26.9036 44.677 27.5838 44.6301L33.588 44.4894C34.2213 44.466 34.8545 44.466 35.4643 44.4425C36.9184 44.4191 38.443 44.3956 39.9205 44.3018C42.008 44.208 43.5325 42.6131 43.5559 40.5491C43.5793 39.1654 43.0164 36.8435 38.9354 36.7027C36.5197 36.6089 34.2446 36.3978 32.0165 36.0694C30.5389 35.8349 29.507 35.2954 28.3108 34.6857C27.4196 34.2166 26.3876 33.7006 25.1211 33.3019C21.3919 32.1058 17.5923 32.2465 13.9339 32.3872C13.5352 32.4107 13.1365 32.4107 12.7612 32.4341C12.6205 30.9565 11.6119 30.1356 10.0405 30.1591C7.43715 30.2294 4.83379 30.2763 2.23031 30.3467C2.11304 30.3467 1.97232 30.3701 1.80814 30.3701L0.330566 30.4405L0.47129 31.6836C0.518198 32.1058 0.541652 32.5514 0.588565 32.9735L0.588506 32.9734Z" fill="black"/>
<path id="Vector_2" d="M45.2916 15.5942C47.2149 13.5303 49.5836 10.9504 49.1615 7.50259C48.9035 5.53246 47.8246 3.74995 46.0891 2.46001C44.2597 1.09963 42.0081 0.513356 39.9207 0.88862C37.0359 1.38116 34.667 3.42165 33.7289 6.18928C33.5178 6.82253 33.8696 7.5027 34.5028 7.71381C35.1361 7.92493 35.8163 7.57309 36.0274 6.93983C36.6841 4.99317 38.3259 3.58593 40.3429 3.25752C41.7736 3.02298 43.392 3.44515 44.6819 4.40679C45.8781 5.29805 46.6286 6.49423 46.7928 7.80765C47.0977 10.1296 45.2918 12.0762 43.5561 13.9525L43.0636 14.492C40.2022 17.6348 39.053 21.2937 39.9208 24.5538C40.0615 25.0932 40.5541 25.445 41.0936 25.445C41.1874 25.445 41.3047 25.4216 41.3985 25.3981C42.0552 25.2339 42.4304 24.5538 42.2663 23.9205C41.375 20.5666 43.5094 17.588 44.8462 16.1103L45.2916 15.5942Z" fill="black"/>
<path id="Vector_3" d="M41.3985 27.696C40.6245 27.8368 40.1085 28.5638 40.2492 29.3378C40.3899 30.1117 41.117 30.6277 41.8909 30.487C42.6648 30.3464 43.1809 29.6192 43.0402 28.8453C42.8995 28.0714 42.1489 27.5788 41.3985 27.696Z" fill="black"/>
</g>
</svg>
