<svg width="65" height="65" viewBox="0 0 65 65" fill="none" xmlns="http://www.w3.org/2000/svg">
<g id="Group">
<path id="Vector" d="M9.83836 21.4241C9.23882 21.4241 8.75928 21.9036 8.75928 22.5032V42.0881C8.75928 42.6876 9.23882 43.1672 9.83836 43.1672C10.4379 43.1672 10.9174 42.6876 10.9174 42.0881V22.5032C10.9174 21.9134 10.4379 21.4241 9.83836 21.4241Z" fill="black"/>
<path id="Vector_2" d="M55.6533 43.1674C56.2528 43.1674 56.7324 42.6879 56.7324 42.0883V22.5034C56.7324 21.9039 56.2528 21.4243 55.6533 21.4243C55.0538 21.4243 54.5742 21.9039 54.5742 22.5034V42.0883C54.5738 42.6879 55.0538 43.1674 55.6533 43.1674Z" fill="black"/>
<path id="Vector_3" d="M64.5858 0.640266C64.166 0.220497 63.4768 0.220497 63.057 0.640266L48.2284 15.4689H3.79288C3.19334 15.4689 2.7138 15.9484 2.7138 16.5479V48.0437C2.7138 48.6433 3.19334 49.1228 3.79288 49.1228H14.5748L1.27528 62.4223C0.855507 62.8421 0.855507 63.5313 1.27528 63.9511C1.48493 64.1612 1.75482 64.2709 2.03451 64.2709C2.3142 64.2709 2.58409 64.1612 2.79374 63.9511L17.6223 49.1225H61.5292C62.1287 49.1225 62.6082 48.6429 62.6082 48.0434V16.5476C62.6082 15.9481 62.1287 15.4685 61.5292 15.4685L51.287 15.4681L64.5865 2.16859C65.0161 1.74882 65.0154 1.06007 64.5858 0.640266ZM4.87171 46.9647V17.6272H46.0698L40.5539 23.1431C38.4854 21.4145 35.8276 20.3752 32.9298 20.3752C26.355 20.3752 20.9984 25.721 20.9984 32.2963C20.9984 35.194 22.0378 37.8518 23.7663 39.9204L16.7217 46.965L4.87171 46.9647ZM25.3154 38.3815C23.9762 36.7128 23.1671 34.5943 23.1671 32.296C23.1671 26.91 27.5437 22.5335 32.9297 22.5335C35.2279 22.5335 37.3464 23.3427 39.0152 24.6721L25.3154 38.3815ZM40.5437 26.2103C41.8829 27.8791 42.692 29.9976 42.692 32.3056C42.692 37.6917 38.3155 42.0682 32.9295 42.0682C30.6214 42.0682 28.5029 41.259 26.8341 39.9199L40.5437 26.2103ZM60.4587 17.6272V46.9647H19.7905L25.3064 41.4488C27.3749 43.1774 30.0327 44.2167 32.9408 44.2167C39.5156 44.2167 44.8619 38.8709 44.8619 32.2956C44.8619 29.3978 43.8225 26.7401 42.094 24.6715L49.1288 17.6367L60.4587 17.6272Z" fill="black"/>
</g>
</svg>
